<svg xmlns="http://www.w3.org/2000/svg" width="10" height="8" fill="none"><path fill="#F4F4FD" d="M8.44558.25506c.1728-.1654.40276-.25685.64135-.25503.23858.00181.46714.09674.63743.26475.1703.16802.26901.39597.27532.63577.00632.23979-.08029.47268-.24152.6495L4.86357 7.70436a.92019.92019 0 0 1-.29867.21506.916.916 0 0 1-.35854.08042.91571.91571 0 0 1-.36126-.06702.91951.91951 0 0 1-.30638-.20379L.29282 4.46564a.92486.92486 0 0 1-.21317-.30027.92917.92917 0 0 1-.0795-.36015.92933.92933 0 0 1 .06681-.36274.92546.92546 0 0 1 .20251-.30765.91972.91972 0 0 1 .306-.2036.91576.91576 0 0 1 .3608-.06718.916.916 0 0 1 .35822.07993.9203.9203 0 0 1 .29866.21433l2.56874 2.58136L8.42227.28219A.32897.32897 0 0 1 8.4468.25506h-.00122Z"/></svg>